<svg class="svg-icon" style="width: 1em; height: 1em;vertical-align: middle;fill: currentColor;overflow: hidden;" viewBox="0 0 1024 1024" version="1.1" xmlns="http://www.w3.org/2000/svg"><path d="M853.333333 797.653333L334.506667 262.4l-109.44-112.853333L170.666667 203.733333l119.466666 119.466667 0.213334 0.213333C267.946667 365.653333 256 415.573333 256 469.333333v213.333334l-85.333333 85.333333v42.666667h585.813333l85.333333 85.333333L896 841.6l-42.666667-43.946667zM512 938.666667c47.146667 0 85.333333-38.186667 85.333333-85.333334h-170.666666c0 47.146667 38.186667 85.333333 85.333333 85.333334z m256-312.32V469.333333c0-131.2-69.76-240.64-192-269.653333V170.666667c0-35.413333-28.586667-64-64-64s-64 28.586667-64 64v29.013333a233.664 233.664 0 0 0-31.146667 9.813333s-0.213333 0-0.213333 0.213334c-0.213333 0-0.426667 0.213333-0.64 0.213333-9.813333 3.84-19.413333 8.32-28.8 13.226667-0.213333 0-0.426667 0.213333-0.64 0.213333L768 626.346667z" fill="#010101" /></svg>