<?xml version="1.0" standalone="no"?>
<!DOCTYPE svg PUBLIC "-//W3C//DTD SVG 20010904//EN"
 "http://www.w3.org/TR/2001/REC-SVG-20010904/DTD/svg10.dtd">
<svg version="1.0" xmlns="http://www.w3.org/2000/svg"
 width="700.000000pt" height="700.000000pt" viewBox="0 0 700.000000 700.000000"
 preserveAspectRatio="xMidYMid meet">
<metadata>
Created by potrace 1.14, written by Peter Selinger 2001-2017
</metadata>
<g transform="translate(0.000000,700.000000) scale(0.100000,-0.100000)"
fill="#000000" stroke="none">
<path d="M3278 6995 c-2 -1 -42 -5 -89 -9 -47 -4 -95 -8 -105 -10 -10 -2 -46
-7 -79 -11 -59 -7 -79 -10 -125 -20 -36 -8 -71 -14 -105 -20 -66 -12 -297 -76
-405 -113 -736 -251 -1370 -743 -1795 -1392 -253 -386 -430 -822 -510 -1255
-10 -49 -18 -97 -20 -105 -2 -9 -6 -43 -10 -75 -4 -33 -9 -69 -11 -80 -26
-140 -25 -632 1 -822 10 -67 14 -99 20 -148 4 -27 10 -66 15 -85 5 -19 12 -48
14 -65 27 -149 108 -418 184 -606 50 -125 156 -337 226 -453 36 -60 66 -111
66 -113 0 -2 5 -9 10 -16 6 -7 40 -55 76 -107 509 -729 1299 -1246 2169 -1419
140 -28 153 -30 220 -37 33 -3 63 -8 66 -9 30 -18 535 -27 709 -12 153 13 369
47 475 74 33 8 69 17 79 19 10 2 60 15 110 30 950 272 1750 942 2179 1826 184
377 296 775 340 1203 14 133 15 559 3 665 -17 133 -27 208 -31 231 -3 13 -8
40 -11 59 -7 49 -53 259 -64 295 -87 286 -142 430 -241 630 -446 907 -1259
1574 -2234 1835 -189 51 -252 62 -575 106 -45 6 -546 14 -552 9z m445 -538
l38 -2 103 -205 c123 -244 326 -697 326 -727 0 -4 -12 -8 -27 -9 -16 0 -71 -5
-123 -10 -52 -4 -482 -9 -955 -10 -473 -1 -885 -4 -915 -7 -30 -4 -106 -11
-169 -17 -415 -39 -650 -113 -926 -295 -28 -19 -27 -17 15 45 110 163 334 411
495 547 211 178 500 357 740 457 50 20 99 41 110 46 41 19 234 79 334 105 308
78 564 100 954 82z m767 -164 c167 -60 315 -127 450 -204 l111 -63 -6 -45 c-9
-73 -61 -165 -128 -227 -33 -31 -69 -60 -81 -65 -12 -6 -34 -17 -51 -26 -53
-29 -145 -62 -145 -52 0 19 -161 396 -252 589 -28 58 -54 115 -59 128 -11 28
-20 30 161 -35z m1085 -680 c141 -138 178 -178 266 -293 198 -256 364 -556
470 -851 l37 -106 -276 1 c-243 0 -483 -8 -592 -19 -19 -2 -77 -6 -128 -10
-52 -3 -103 -8 -114 -10 -12 -3 -56 -7 -98 -11 l-77 -6 -8 39 c-5 21 -10 43
-11 48 -2 6 -12 44 -23 85 -11 41 -29 107 -40 145 -23 84 -132 428 -160 505
l-19 54 65 28 c111 48 135 60 219 113 143 92 261 219 328 353 14 28 30 52 34
52 4 0 61 -53 127 -117z m-1151 -720 c74 -228 112 -351 156 -513 17 -63 33
-122 36 -131 4 -16 -29 -25 -194 -55 -30 -6 -408 -94 -447 -105 -16 -4 -57
-15 -90 -24 -33 -10 -67 -18 -75 -20 -63 -12 -433 -129 -635 -200 -881 -310
-1736 -779 -2335 -1281 -52 -44 -100 -83 -107 -87 -10 -7 -40 66 -58 143 -2 8
-17 71 -33 140 -17 69 -33 143 -36 165 -3 22 -8 51 -10 65 -29 168 -41 515
-23 675 7 61 31 191 41 220 1 6 6 24 11 40 4 17 33 84 65 150 171 354 453 656
760 810 73 37 238 93 297 101 27 3 55 7 63 9 17 3 93 15 130 20 14 2 57 7 95
10 39 4 84 9 100 11 17 2 104 7 195 10 166 7 261 7 1075 4 242 -2 476 0 520 4
44 3 116 8 160 11 103 7 189 16 194 21 2 2 21 4 42 4 l38 0 65 -197z m1736
-997 c199 -11 265 -17 272 -24 21 -21 31 -470 16 -647 -7 -68 -38 -275 -52
-340 -32 -146 -69 -274 -118 -407 l-40 -107 -61 38 c-202 122 -395 174 -637
172 -52 -1 -119 -5 -148 -10 -29 -4 -54 -5 -56 -2 -2 3 -4 38 -5 78 -1 39 -4
82 -6 95 -2 12 -6 64 -10 113 -3 50 -8 101 -10 115 -2 14 -7 52 -10 85 -17
174 -66 500 -106 703 -12 57 -19 106 -16 108 2 3 35 7 73 10 38 2 83 7 100 9
16 2 109 7 205 11 96 3 175 7 176 8 4 4 319 -3 433 -8z m-1439 -103 c0 -5 2
-15 4 -23 8 -32 66 -347 70 -380 3 -19 7 -46 10 -60 3 -14 7 -47 10 -75 3 -27
8 -57 10 -65 2 -8 7 -44 10 -80 3 -36 8 -72 10 -80 3 -14 13 -104 20 -190 1
-19 6 -78 11 -130 4 -52 8 -135 8 -183 l1 -88 -140 -53 c-359 -135 -565 -242
-1020 -526 -597 -373 -987 -559 -1280 -609 -132 -22 -327 -30 -425 -16 -19 2
-57 7 -85 11 -107 13 -281 65 -320 96 -5 4 -38 28 -72 53 -89 63 -106 79 -218
190 -113 113 -201 221 -306 372 l-71 104 23 26 c19 19 196 167 309 256 159
127 586 403 805 522 39 21 93 50 120 65 125 69 444 224 530 258 22 8 45 18 50
22 15 11 342 141 490 195 155 57 356 123 520 171 137 41 125 37 230 65 44 11
94 24 110 29 43 11 255 61 285 67 14 2 84 17 155 33 156 33 145 32 146 23z
m954 -1667 c65 -7 147 -32 210 -63 63 -31 145 -85 145 -96 0 -11 -80 -135
-143 -222 -113 -155 -296 -356 -432 -476 -53 -46 -177 -140 -181 -136 -2 1 1
32 6 68 5 35 12 89 15 119 4 30 8 69 10 85 2 17 7 66 10 110 4 44 8 94 11 110
3 28 12 229 18 402 3 79 5 85 39 91 110 18 191 20 292 8z m-784 -248 c-1 -46
-4 -108 -6 -138 -7 -104 -15 -215 -20 -255 -2 -22 -7 -62 -10 -90 -3 -27 -8
-61 -10 -75 -2 -14 -6 -47 -10 -75 -9 -78 -34 -232 -46 -283 -6 -26 -13 -65
-15 -87 -3 -22 -14 -47 -24 -56 -27 -23 -213 -100 -345 -143 -167 -54 -315
-87 -535 -120 -126 -19 -430 -26 -600 -13 -203 16 -450 63 -645 124 -86 27
-317 114 -313 119 2 1 32 5 68 9 229 23 420 76 657 181 121 54 365 174 433
214 8 5 57 33 108 62 147 84 155 89 285 169 67 42 178 111 247 153 69 42 132
80 140 86 37 23 282 151 345 180 39 18 93 43 121 56 28 13 55 24 61 24 9 0 60
22 93 39 8 5 17 7 19 5 2 -2 3 -40 2 -86z"/>
</g>
</svg>
